<mxfile host="app.diagrams.net" modified="2022-05-28T09:48:56.746Z" agent="5.0 (Windows NT 10.0; Win64; x64) AppleWebKit/537.36 (KHTML, like Gecko) Chrome/102.0.5005.62 Safari/537.36" etag="wYoOljtaiJTXSsbm-x7a" version="18.1.3" type="github">
  <diagram id="wFE0QG_FPsp0jaGvCLVb" name="Page-1">
    <mxGraphModel dx="867" dy="1617" grid="1" gridSize="10" guides="1" tooltips="1" connect="1" arrows="1" fold="1" page="1" pageScale="1" pageWidth="850" pageHeight="1100" math="0" shadow="0">
      <root>
        <mxCell id="0" />
        <mxCell id="1" parent="0" />
        <mxCell id="_5mSTuPxr-ZiKRkBDSY7-1" value="" style="swimlane;fontStyle=1;childLayout=stackLayout;horizontal=1;startSize=28;horizontalStack=1;resizeParent=1;resizeParentMax=0;resizeLast=0;collapsible=0;marginBottom=0;swimlaneFillColor=none;fontFamily=Permanent Marker;fontSize=12;points=[];verticalAlign=middle;stackBorder=0;resizable=1;strokeWidth=2;sketch=0;disableMultiStroke=1;fillColor=#d5e8d4;strokeColor=#82b366;spacingTop=0;rounded=0;arcSize=9;hachureGap=8;fillWeight=1;" parent="1" vertex="1">
          <mxGeometry x="10" width="1260" height="680" as="geometry" />
        </mxCell>
        <object label="TO DO" status="New" id="_5mSTuPxr-ZiKRkBDSY7-2">
          <mxCell style="swimlane;strokeWidth=2;fontFamily=Permanent Marker;html=0;startSize=1;verticalAlign=middle;spacingBottom=5;points=[];childLayout=stackLayout;stackBorder=20;stackSpacing=20;resizeLast=0;resizeParent=1;horizontalStack=0;collapsible=0;sketch=0;strokeColor=#82b366;fillStyle=solid;fillColor=#d5e8d4;spacingTop=0;rounded=0;arcSize=9;hachureGap=8;fillWeight=1;" parent="_5mSTuPxr-ZiKRkBDSY7-1" vertex="1">
            <mxGeometry y="28" width="180" height="652" as="geometry" />
          </mxCell>
        </object>
        <object label="鉴权模块" placeholders="1" id="_5mSTuPxr-ZiKRkBDSY7-3">
          <mxCell style="whiteSpace=wrap;html=1;strokeWidth=2;fontStyle=1;spacingTop=0;rounded=0;arcSize=9;points=[];sketch=0;fontFamily=Permanent Marker;hachureGap=8;fillWeight=1;fillColor=#d5e8d4;strokeColor=#82b366;" parent="_5mSTuPxr-ZiKRkBDSY7-2" vertex="1">
            <mxGeometry x="20" y="21" width="140" height="80" as="geometry" />
          </mxCell>
        </object>
        <object label="手机号验证码登入" placeholders="1" id="_5mSTuPxr-ZiKRkBDSY7-4">
          <mxCell style="whiteSpace=wrap;html=1;strokeWidth=2;fontStyle=1;spacingTop=0;rounded=0;arcSize=9;points=[];sketch=0;fontFamily=Permanent Marker;hachureGap=8;fillWeight=1;fillColor=#b0e3e6;strokeColor=#0e8088;" parent="_5mSTuPxr-ZiKRkBDSY7-2" vertex="1">
            <mxGeometry x="20" y="121" width="140" height="80" as="geometry" />
          </mxCell>
        </object>
        <object label="邮箱验证码登入" placeholders="1" id="_5mSTuPxr-ZiKRkBDSY7-5">
          <mxCell style="whiteSpace=wrap;html=1;strokeWidth=2;fillColor=#b0e3e6;fontStyle=1;spacingTop=0;rounded=0;arcSize=9;points=[];sketch=0;fontFamily=Permanent Marker;hachureGap=8;fillWeight=1;strokeColor=#0e8088;" parent="_5mSTuPxr-ZiKRkBDSY7-2" vertex="1">
            <mxGeometry x="20" y="221" width="140" height="80" as="geometry" />
          </mxCell>
        </object>
        <object label="本机手机号获取登入" placeholders="1" id="Qd9C7BI9R3bH5Mv_j0PO-27">
          <mxCell style="whiteSpace=wrap;html=1;strokeWidth=2;fillColor=#b0e3e6;fontStyle=1;spacingTop=0;rounded=0;arcSize=9;points=[];sketch=0;fontFamily=Permanent Marker;hachureGap=8;fillWeight=1;strokeColor=#0e8088;" vertex="1" parent="_5mSTuPxr-ZiKRkBDSY7-2">
            <mxGeometry x="20" y="321" width="140" height="80" as="geometry" />
          </mxCell>
        </object>
        <object label="TO DO" status="New" id="Qd9C7BI9R3bH5Mv_j0PO-1">
          <mxCell style="swimlane;strokeWidth=2;fontFamily=Permanent Marker;html=0;startSize=1;verticalAlign=middle;spacingBottom=5;points=[];childLayout=stackLayout;stackBorder=20;stackSpacing=20;resizeLast=0;resizeParent=1;horizontalStack=0;collapsible=0;sketch=0;strokeColor=#82b366;fillStyle=solid;fillColor=#d5e8d4;spacingTop=0;rounded=0;arcSize=9;hachureGap=8;fillWeight=1;" vertex="1" parent="_5mSTuPxr-ZiKRkBDSY7-1">
            <mxGeometry x="180" y="28" width="180" height="652" as="geometry" />
          </mxCell>
        </object>
        <object label="订单模块" placeholders="1" id="Qd9C7BI9R3bH5Mv_j0PO-2">
          <mxCell style="whiteSpace=wrap;html=1;strokeWidth=2;fillColor=#d5e8d4;fontStyle=1;spacingTop=0;rounded=0;arcSize=9;points=[];sketch=0;fontFamily=Permanent Marker;hachureGap=8;fillWeight=1;strokeColor=#82b366;" vertex="1" parent="Qd9C7BI9R3bH5Mv_j0PO-1">
            <mxGeometry x="20" y="21" width="140" height="79" as="geometry" />
          </mxCell>
        </object>
        <object label="货品下单" placeholders="1" id="Qd9C7BI9R3bH5Mv_j0PO-3">
          <mxCell style="whiteSpace=wrap;html=1;strokeWidth=2;fillColor=#b0e3e6;fontStyle=1;spacingTop=0;rounded=0;arcSize=9;points=[];sketch=0;fontFamily=Permanent Marker;hachureGap=8;fillWeight=1;strokeColor=#0e8088;" vertex="1" parent="Qd9C7BI9R3bH5Mv_j0PO-1">
            <mxGeometry x="20" y="120" width="140" height="80" as="geometry" />
          </mxCell>
        </object>
        <object label="订单状态" placeholders="1" id="Qd9C7BI9R3bH5Mv_j0PO-4">
          <mxCell style="whiteSpace=wrap;html=1;strokeWidth=2;fillColor=#b0e3e6;fontStyle=1;spacingTop=0;rounded=0;arcSize=9;points=[];sketch=0;fontFamily=Permanent Marker;hachureGap=8;fillWeight=1;strokeColor=#0e8088;" vertex="1" parent="Qd9C7BI9R3bH5Mv_j0PO-1">
            <mxGeometry x="20" y="220" width="140" height="80" as="geometry" />
          </mxCell>
        </object>
        <object label="TO DO" status="In progress" id="_5mSTuPxr-ZiKRkBDSY7-6">
          <mxCell style="swimlane;strokeWidth=2;fontFamily=Permanent Marker;html=0;startSize=1;verticalAlign=middle;spacingBottom=5;points=[];childLayout=stackLayout;stackBorder=20;stackSpacing=20;resizeLast=0;resizeParent=1;horizontalStack=0;collapsible=0;sketch=0;strokeColor=#82b366;fillStyle=solid;fillColor=#d5e8d4;spacingTop=0;rounded=0;arcSize=9;hachureGap=8;fillWeight=1;" parent="_5mSTuPxr-ZiKRkBDSY7-1" vertex="1">
            <mxGeometry x="360" y="28" width="180" height="652" as="geometry" />
          </mxCell>
        </object>
        <object label="商品模块" placeholders="1" id="_5mSTuPxr-ZiKRkBDSY7-7">
          <mxCell style="whiteSpace=wrap;html=1;strokeWidth=2;fillColor=#d5e8d4;fontStyle=1;spacingTop=0;rounded=0;arcSize=9;points=[];sketch=0;fontFamily=Permanent Marker;hachureGap=8;fillWeight=1;strokeColor=#82b366;" parent="_5mSTuPxr-ZiKRkBDSY7-6" vertex="1">
            <mxGeometry x="20" y="21" width="140" height="80" as="geometry" />
          </mxCell>
        </object>
        <object label="Task 5&lt;br&gt;&lt;span style=&quot;font-weight: normal&quot;&gt;&lt;i&gt;&lt;font style=&quot;font-size: 10px&quot;&gt;%status%&lt;/font&gt;&lt;/i&gt;&lt;/span&gt;" placeholders="1" id="_5mSTuPxr-ZiKRkBDSY7-8">
          <mxCell style="whiteSpace=wrap;html=1;strokeWidth=2;fillColor=#d5e8d4;fontStyle=1;spacingTop=0;rounded=0;arcSize=9;points=[];sketch=0;fontFamily=Permanent Marker;hachureGap=8;fillWeight=1;strokeColor=#82b366;" parent="_5mSTuPxr-ZiKRkBDSY7-6" vertex="1">
            <mxGeometry x="20" y="121" width="140" height="80" as="geometry" />
          </mxCell>
        </object>
        <object label="TO DO" status="Completed" id="_5mSTuPxr-ZiKRkBDSY7-9">
          <mxCell style="swimlane;strokeWidth=2;fontFamily=Permanent Marker;html=0;startSize=1;verticalAlign=middle;spacingBottom=5;points=[];childLayout=stackLayout;stackBorder=20;stackSpacing=20;resizeLast=0;resizeParent=1;horizontalStack=0;collapsible=0;sketch=0;strokeColor=#82b366;fillStyle=solid;fillColor=#d5e8d4;spacingTop=0;rounded=0;arcSize=9;hachureGap=8;fillWeight=1;" parent="_5mSTuPxr-ZiKRkBDSY7-1" vertex="1">
            <mxGeometry x="540" y="28" width="180" height="652" as="geometry" />
          </mxCell>
        </object>
        <object label="直播模块" placeholders="1" id="_5mSTuPxr-ZiKRkBDSY7-10">
          <mxCell style="whiteSpace=wrap;html=1;strokeWidth=2;fillColor=#d5e8d4;fontStyle=1;spacingTop=0;rounded=0;arcSize=9;points=[];sketch=0;fontFamily=Permanent Marker;hachureGap=8;fillWeight=1;strokeColor=#82b366;" parent="_5mSTuPxr-ZiKRkBDSY7-9" vertex="1">
            <mxGeometry x="20" y="21" width="140" height="80" as="geometry" />
          </mxCell>
        </object>
        <object label="Task 7&lt;br&gt;&lt;span style=&quot;font-weight: normal&quot;&gt;&lt;i&gt;&lt;font style=&quot;font-size: 10px&quot;&gt;%status%&lt;/font&gt;&lt;/i&gt;&lt;/span&gt;" placeholders="1" id="_5mSTuPxr-ZiKRkBDSY7-11">
          <mxCell style="whiteSpace=wrap;html=1;strokeWidth=2;fillColor=#d5e8d4;fontStyle=1;spacingTop=0;rounded=0;arcSize=9;points=[];sketch=0;fontFamily=Permanent Marker;hachureGap=8;fillWeight=1;strokeColor=#82b366;" parent="_5mSTuPxr-ZiKRkBDSY7-9" vertex="1">
            <mxGeometry x="20" y="121" width="140" height="80" as="geometry" />
          </mxCell>
        </object>
        <object label="Task 8&lt;br&gt;&lt;span style=&quot;font-weight: normal&quot;&gt;&lt;i&gt;&lt;font style=&quot;font-size: 10px&quot;&gt;%status%&lt;/font&gt;&lt;/i&gt;&lt;/span&gt;" placeholders="1" id="_5mSTuPxr-ZiKRkBDSY7-12">
          <mxCell style="whiteSpace=wrap;html=1;strokeWidth=2;fillColor=#d5e8d4;fontStyle=1;spacingTop=0;rounded=0;arcSize=9;points=[];sketch=0;fontFamily=Permanent Marker;hachureGap=8;fillWeight=1;strokeColor=#82b366;" parent="_5mSTuPxr-ZiKRkBDSY7-9" vertex="1">
            <mxGeometry x="20" y="221" width="140" height="80" as="geometry" />
          </mxCell>
        </object>
        <object label="TO DO" status="Completed" id="Qd9C7BI9R3bH5Mv_j0PO-15">
          <mxCell style="swimlane;strokeWidth=2;fontFamily=Permanent Marker;html=0;startSize=1;verticalAlign=middle;spacingBottom=5;points=[];childLayout=stackLayout;stackBorder=20;stackSpacing=20;resizeLast=0;resizeParent=1;horizontalStack=0;collapsible=0;sketch=0;strokeColor=#82b366;fillStyle=solid;fillColor=#d5e8d4;spacingTop=0;rounded=0;arcSize=9;hachureGap=8;fillWeight=1;" vertex="1" parent="_5mSTuPxr-ZiKRkBDSY7-1">
            <mxGeometry x="720" y="28" width="180" height="652" as="geometry" />
          </mxCell>
        </object>
        <object label="分佣模块" placeholders="1" id="Qd9C7BI9R3bH5Mv_j0PO-16">
          <mxCell style="whiteSpace=wrap;html=1;strokeWidth=2;fillColor=#d5e8d4;fontStyle=1;spacingTop=0;rounded=0;arcSize=9;points=[];sketch=0;fontFamily=Permanent Marker;hachureGap=8;fillWeight=1;strokeColor=#82b366;" vertex="1" parent="Qd9C7BI9R3bH5Mv_j0PO-15">
            <mxGeometry x="20" y="21" width="140" height="80" as="geometry" />
          </mxCell>
        </object>
        <object label="Task 7&lt;br&gt;&lt;span style=&quot;font-weight: normal&quot;&gt;&lt;i&gt;&lt;font style=&quot;font-size: 10px&quot;&gt;%status%&lt;/font&gt;&lt;/i&gt;&lt;/span&gt;" placeholders="1" id="Qd9C7BI9R3bH5Mv_j0PO-17">
          <mxCell style="whiteSpace=wrap;html=1;strokeWidth=2;fillColor=#d5e8d4;fontStyle=1;spacingTop=0;rounded=0;arcSize=9;points=[];sketch=0;fontFamily=Permanent Marker;hachureGap=8;fillWeight=1;strokeColor=#82b366;" vertex="1" parent="Qd9C7BI9R3bH5Mv_j0PO-15">
            <mxGeometry x="20" y="121" width="140" height="80" as="geometry" />
          </mxCell>
        </object>
        <object label="Task 8&lt;br&gt;&lt;span style=&quot;font-weight: normal&quot;&gt;&lt;i&gt;&lt;font style=&quot;font-size: 10px&quot;&gt;%status%&lt;/font&gt;&lt;/i&gt;&lt;/span&gt;" placeholders="1" id="Qd9C7BI9R3bH5Mv_j0PO-18">
          <mxCell style="whiteSpace=wrap;html=1;strokeWidth=2;fillColor=#d5e8d4;fontStyle=1;spacingTop=0;rounded=0;arcSize=9;points=[];sketch=0;fontFamily=Permanent Marker;hachureGap=8;fillWeight=1;strokeColor=#82b366;" vertex="1" parent="Qd9C7BI9R3bH5Mv_j0PO-15">
            <mxGeometry x="20" y="221" width="140" height="80" as="geometry" />
          </mxCell>
        </object>
        <object label="to do" status="Completed" id="Qd9C7BI9R3bH5Mv_j0PO-19">
          <mxCell style="swimlane;strokeWidth=2;fontFamily=Permanent Marker;html=0;startSize=1;verticalAlign=middle;spacingBottom=5;points=[];childLayout=stackLayout;stackBorder=20;stackSpacing=20;resizeLast=0;resizeParent=1;horizontalStack=0;collapsible=0;sketch=0;strokeColor=#82b366;fillStyle=solid;fillColor=#d5e8d4;spacingTop=0;rounded=0;arcSize=9;hachureGap=8;fillWeight=1;" vertex="1" parent="_5mSTuPxr-ZiKRkBDSY7-1">
            <mxGeometry x="900" y="28" width="180" height="652" as="geometry" />
          </mxCell>
        </object>
        <object label="通讯模块" placeholders="1" id="Qd9C7BI9R3bH5Mv_j0PO-20">
          <mxCell style="whiteSpace=wrap;html=1;strokeWidth=2;fillColor=#d5e8d4;fontStyle=1;spacingTop=0;rounded=0;arcSize=9;points=[];sketch=0;fontFamily=Permanent Marker;hachureGap=8;fillWeight=1;strokeColor=#82b366;" vertex="1" parent="Qd9C7BI9R3bH5Mv_j0PO-19">
            <mxGeometry x="20" y="21" width="140" height="80" as="geometry" />
          </mxCell>
        </object>
        <object label="Task 7&lt;br&gt;&lt;span style=&quot;font-weight: normal&quot;&gt;&lt;i&gt;&lt;font style=&quot;font-size: 10px&quot;&gt;%status%&lt;/font&gt;&lt;/i&gt;&lt;/span&gt;" placeholders="1" id="Qd9C7BI9R3bH5Mv_j0PO-21">
          <mxCell style="whiteSpace=wrap;html=1;strokeWidth=2;fillColor=#dae8fc;fontStyle=1;spacingTop=0;rounded=0;arcSize=9;points=[];sketch=0;fontFamily=Permanent Marker;hachureGap=8;fillWeight=1;strokeColor=#6c8ebf;" vertex="1" parent="Qd9C7BI9R3bH5Mv_j0PO-19">
            <mxGeometry x="20" y="121" width="140" height="80" as="geometry" />
          </mxCell>
        </object>
        <object label="Task 8&lt;br&gt;&lt;span style=&quot;font-weight: normal&quot;&gt;&lt;i&gt;&lt;font style=&quot;font-size: 10px&quot;&gt;%status%&lt;/font&gt;&lt;/i&gt;&lt;/span&gt;" placeholders="1" id="Qd9C7BI9R3bH5Mv_j0PO-22">
          <mxCell style="whiteSpace=wrap;html=1;strokeWidth=2;fillColor=#d5e8d4;fontStyle=1;spacingTop=0;rounded=0;arcSize=9;points=[];sketch=0;fontFamily=Permanent Marker;hachureGap=8;fillWeight=1;strokeColor=#82b366;" vertex="1" parent="Qd9C7BI9R3bH5Mv_j0PO-19">
            <mxGeometry x="20" y="221" width="140" height="80" as="geometry" />
          </mxCell>
        </object>
        <object label="to do" status="Completed" id="Qd9C7BI9R3bH5Mv_j0PO-23">
          <mxCell style="swimlane;strokeWidth=2;fontFamily=Permanent Marker;html=0;startSize=1;verticalAlign=middle;spacingBottom=5;points=[];childLayout=stackLayout;stackBorder=20;stackSpacing=20;resizeLast=0;resizeParent=1;horizontalStack=0;collapsible=0;sketch=0;strokeColor=#82b366;fillStyle=solid;fillColor=#d5e8d4;spacingTop=0;rounded=0;arcSize=9;hachureGap=8;fillWeight=1;" vertex="1" parent="_5mSTuPxr-ZiKRkBDSY7-1">
            <mxGeometry x="1080" y="28" width="180" height="652" as="geometry" />
          </mxCell>
        </object>
        <object label="报表模块" placeholders="1" id="Qd9C7BI9R3bH5Mv_j0PO-24">
          <mxCell style="whiteSpace=wrap;html=1;strokeWidth=2;fillColor=#d5e8d4;fontStyle=1;spacingTop=0;rounded=0;arcSize=9;points=[];sketch=0;fontFamily=Permanent Marker;hachureGap=8;fillWeight=1;strokeColor=#82b366;" vertex="1" parent="Qd9C7BI9R3bH5Mv_j0PO-23">
            <mxGeometry x="20" y="21" width="140" height="80" as="geometry" />
          </mxCell>
        </object>
        <object label="Task 7&lt;br&gt;&lt;span style=&quot;font-weight: normal&quot;&gt;&lt;i&gt;&lt;font style=&quot;font-size: 10px&quot;&gt;%status%&lt;/font&gt;&lt;/i&gt;&lt;/span&gt;" placeholders="1" id="Qd9C7BI9R3bH5Mv_j0PO-25">
          <mxCell style="whiteSpace=wrap;html=1;strokeWidth=2;fillColor=#d5e8d4;fontStyle=1;spacingTop=0;rounded=0;arcSize=9;points=[];sketch=0;fontFamily=Permanent Marker;hachureGap=8;fillWeight=1;strokeColor=#82b366;" vertex="1" parent="Qd9C7BI9R3bH5Mv_j0PO-23">
            <mxGeometry x="20" y="121" width="140" height="80" as="geometry" />
          </mxCell>
        </object>
        <object label="Task 8&lt;br&gt;&lt;span style=&quot;font-weight: normal&quot;&gt;&lt;i&gt;&lt;font style=&quot;font-size: 10px&quot;&gt;%status%&lt;/font&gt;&lt;/i&gt;&lt;/span&gt;" placeholders="1" id="Qd9C7BI9R3bH5Mv_j0PO-26">
          <mxCell style="whiteSpace=wrap;html=1;strokeWidth=2;fillColor=#d5e8d4;fontStyle=1;spacingTop=0;rounded=0;arcSize=9;points=[];sketch=0;fontFamily=Permanent Marker;hachureGap=8;fillWeight=1;strokeColor=#82b366;" vertex="1" parent="Qd9C7BI9R3bH5Mv_j0PO-23">
            <mxGeometry x="20" y="221" width="140" height="80" as="geometry" />
          </mxCell>
        </object>
      </root>
    </mxGraphModel>
  </diagram>
</mxfile>
